<svg width="304" height="210" viewBox="0 0 304 210" fill="none" xmlns="http://www.w3.org/2000/svg">
<rect width="304" height="210" fill="white"/>
<rect width="304" height="210" fill="#BABABA"/>
<path d="M189.3 127.636L168.258 98.2426C166.482 95.7591 165.54 92.892 165.54 89.9634L165.569 68.0239L138.593 68L138.566 89.9223C138.562 92.8543 137.612 95.7283 135.828 98.2116L114.712 127.567C113.574 129.15 113 130.957 113 132.763C113 134.384 113.46 136.011 114.386 137.48C116.353 140.594 120.091 142.526 124.155 142.529L179.824 142.581H179.828C179.979 142.581 180.055 142.574 180.057 142.574L180.055 142.567C184.028 142.498 187.667 140.597 189.602 137.552V137.549C190.536 136.076 191 134.444 191 132.817C191 131.017 190.43 129.215 189.3 127.636ZM183.905 134.79C183.086 136.083 181.528 136.888 179.838 136.884C179.82 136.884 179.816 136.888 179.804 136.888L124.161 136.834C122.469 136.833 120.906 136.026 120.091 134.73C119.701 134.113 119.512 133.442 119.512 132.763C119.512 132.008 119.749 131.26 120.224 130.598L141.337 101.245C143.777 97.8537 145.07 93.9334 145.077 89.9257L145.097 73.6997L159.05 73.7134L159.029 89.9429V89.9497V89.9634C159.029 93.9607 160.315 97.8742 162.74 101.264L183.78 130.657C184.252 131.314 184.489 132.065 184.491 132.817C184.489 133.496 184.297 134.171 183.905 134.79Z" fill="white"/>
<path d="M163.265 110.432C163.026 110.095 162.603 109.891 162.151 109.891L141.906 109.872C141.451 109.872 141.028 110.074 140.789 110.411L126.266 130.595C126.012 130.952 125.996 131.4 126.229 131.769C126.46 132.137 126.903 132.363 127.383 132.363L176.617 132.409C177.097 132.411 177.537 132.185 177.772 131.817C178.003 131.448 177.99 131.001 177.733 130.647L163.265 110.432Z" fill="white"/>
</svg>
